<?xml version="1.0" encoding="utf-8"?>
<!-- Generator: Adobe Illustrator 18.0.0, SVG Export Plug-In . SVG Version: 6.00 Build 0)  -->
<!DOCTYPE svg PUBLIC "-//W3C//DTD SVG 1.1//EN" "http://www.w3.org/Graphics/SVG/1.1/DTD/svg11.dtd">
<svg version="1.1" id="Layer_1" xmlns="http://www.w3.org/2000/svg" xmlns:xlink="http://www.w3.org/1999/xlink" x="0px" y="0px"
	 viewBox="0 0 792 612" enable-background="new 0 0 792 612" xml:space="preserve">
<circle fill="#FFFFFF" cx="394" cy="306" r="273.4"/>
<circle cx="394" cy="306" r="273.4"/>
<g>
	<path fill="#FFFFFF" d="M394,0c42.8,0,81.6,8.2,118.3,24.5c38.8,16.3,69.4,36.7,97.9,65.3s49,59.2,65.3,95.9S700,261.1,700,304
		s-8.2,81.6-24.5,118.3c-16.3,36.7-38.8,69.4-65.3,97.9c-28.6,28.6-59.2,49-97.9,65.3C475.6,601.8,434.8,610,394,610
		s-81.6-8.2-118.3-24.5c-36.7-16.3-69.4-38.8-95.9-65.3c-28.6-28.6-49-59.2-65.3-97.9C98.2,385.6,90,346.8,90,304
		s8.2-81.6,24.5-118.3c14.3-36.7,36.7-69.4,65.3-95.9s59.2-49,95.9-65.3C312.4,8.2,353.2,0,394,0z M508.2,132.6h-65.3
		c-12.2,0-24.5,2-34.7,6.1c-10.2,4.1-20.4,10.2-28.6,18.4s-14.3,16.3-18.4,24.5c-4.1,10.2-6.1,18.4-6.1,28.6v38.8h-57.1v75.5h57.1
		v153h75.5v-153h57.1v-75.5h-57.1v-20.4c0-6.1,2-10.2,6.1-14.3c4.1-4.1,8.2-4.1,12.2-4.1h57.1v-77.5H508.2z"/>
</g>
</svg>
