<?xml version="1.0" encoding="utf-8"?>
<!-- Generator: Adobe Illustrator 18.0.0, SVG Export Plug-In . SVG Version: 6.00 Build 0)  -->
<!DOCTYPE svg PUBLIC "-//W3C//DTD SVG 1.1//EN" "http://www.w3.org/Graphics/SVG/1.1/DTD/svg11.dtd">
<svg version="1.1" id="Layer_1" xmlns="http://www.w3.org/2000/svg" xmlns:xlink="http://www.w3.org/1999/xlink" x="0px" y="0px"
	 viewBox="0 0 792 612" enable-background="new 0 0 792 612" xml:space="preserve">
<circle cx="394" cy="306" r="273.4"/>
<g>
	<path fill="#FFFFFF" d="M394,0c42.8,0,81.6,8.2,118.3,24.5c36.7,16.3,69.4,36.7,95.9,65.3c28.6,26.5,49,59.2,65.3,95.9
		s24.5,75.5,24.5,118.3s-8.2,81.6-24.5,118.3s-38.8,69.4-65.3,95.9c-26.5,26.5-59.2,49-95.9,65.3c-36.7,16.3-75.5,24.5-118.3,24.5
		s-81.6-8.2-118.3-24.5s-69.4-38.8-95.9-65.3c-28.6-26.5-49-59.2-65.3-95.9S90,346.8,90,304s8.2-81.6,24.5-118.3
		s36.7-69.4,65.3-95.9c26.5-28.6,59.2-49,95.9-65.3C312.4,8.2,351.1,0,394,0z M261.4,208.1c10.2,0,20.4-4.1,26.5-10.2
		c8.2-8.2,12.2-16.3,12.2-26.5s-4.1-20.4-12.2-26.5c-8.2-8.2-16.3-12.2-26.5-12.2c-10.2,0-20.4,4.1-26.5,10.2
		c-8.2,8.2-12.2,16.3-12.2,28.6c0,10.2,4.1,20.4,10.2,26.5C238.9,204,249.1,208.1,261.4,208.1z M300.1,228.5h-77.5v246.8h75.5V228.5
		H300.1z M565.3,332.5c0-18.4-4.1-34.7-14.3-51s-22.4-28.6-38.8-38.8c-14.3-8.2-30.6-12.2-49-12.2s-36.7,2-51,10.2v-12.2h-75.5
		v246.8h75.5v-151l32.6-14.3c4.1-2,8.2-2,16.3-2c6.1,0,12.2,2,16.3,4.1c2,2,6.1,4.1,8.2,10.2c2,4.1,4.1,10.2,4.1,12.2v142.8h75.5
		V332.5z"/>
</g>
</svg>
