<?xml version="1.0" encoding="utf-8"?>
<!-- Generator: Adobe Illustrator 18.0.0, SVG Export Plug-In . SVG Version: 6.00 Build 0)  -->
<!DOCTYPE svg PUBLIC "-//W3C//DTD SVG 1.0//EN" "http://www.w3.org/TR/2001/REC-SVG-20010904/DTD/svg10.dtd">
<svg version="1.0" id="Layer_1" xmlns="http://www.w3.org/2000/svg" xmlns:xlink="http://www.w3.org/1999/xlink" x="0px" y="0px"
	 viewBox="0 0 1002.9 397.8" enable-background="new 0 0 1002.9 397.8" xml:space="preserve">
<g>
	<polygon fill="#2088A0" points="290.4,198.9 159.6,68.1 28.8,198.9 159.6,329.8 187.5,301.9 84.6,198.9 159.6,123.9 234.7,198.9 
		183.9,249.7 211.8,277.6 	"/>
</g>
<g>
	<g>
		<path fill="#FFFFFF" d="M422.3,217c9.2-7.5,13.9-19.6,13.9-36c0-16.4-4.6-28.6-13.6-36.4c-9.1-7.8-24-11.8-44.2-11.8h-45.1v136.9
			h19.3v-41.3h26.2C398.3,228.5,413,224.6,422.3,217z M352.6,150.5H378c12.9,0,22.5,2.1,28.7,6.4c6.4,4.4,9.6,11.9,9.6,22.2
			c0,10.2-2.5,18.1-7.5,23.5c-5,5.4-14.3,8.2-27.5,8.2h-28.7V150.5z"/>
		<path fill="#FFFFFF" d="M535.5,237.7l13.7,32h20.5L511,132.8h-22.1l-58.6,136.9h20.5l13.7-32H535.5z M500,154.8l27.8,64.8h-55.5
			L500,154.8z"/>
		<polygon fill="#FFFFFF" points="645.3,216.8 645.5,217.2 678.9,269.8 703.1,269.8 657.4,199.4 657.7,198.9 699.8,132.8 
			675.8,132.8 645.2,180.4 642.2,180.4 641.9,179.9 611.6,132.8 587.6,132.8 630,199.4 629.7,199.9 584.3,269.8 608.5,269.8 
			642.2,216.8 		"/>
		<path fill="#FFFFFF" d="M777.4,129.4c-19.7,0-36.5,6.8-49.9,20.3s-20.2,30.5-20.2,50.6s6.8,37.1,20.2,50.6
			c13.4,13.5,30.2,20.3,49.9,20.3s36.5-6.8,49.9-20.3c13.4-13.5,20.2-30.5,20.2-50.6c0-20.1-6.8-37.1-20.2-50.6
			C814,136.2,797.2,129.4,777.4,129.4z M813.2,237.7c-9.7,10.3-21.7,15.5-35.8,15.5c-14.1,0-26.1-5.2-35.8-15.5
			c-9.6-10.3-14.5-22.9-14.5-37.5c0-14.6,4.9-27.2,14.5-37.5c9.7-10.3,21.7-15.5,35.8-15.5c14.1,0,26.1,5.2,35.8,15.5
			c9.6,10.3,14.5,22.9,14.5,37.5C827.7,214.9,822.8,227.5,813.2,237.7z"/>
		<path fill="#FFFFFF" d="M950.4,260.3c8.5-7.2,12.8-16.8,12.8-28.4c0-11.7-3.4-20.6-10-26.5c-6.9-6.1-17.3-10.9-30.9-14.3
			c-14.4-3.6-23.6-6.9-28.1-10.1c-4.8-3.4-7.3-8.3-7.3-14.7c0-6.4,2.5-11.2,7.3-14.4c4.6-3,10.5-4.5,17.6-4.5c6.9,0,14,1.3,21.1,3.7
			c6.2,2.2,11.4,4.9,15.4,8.2l10.1-14.7c-5.8-4.7-12.6-8.4-20.4-11c-8.4-2.9-16.9-4.3-25.4-4.3c-13.1,0-24.2,3.4-33,10.2
			c-8.7,6.6-13,16.3-13,28.6c0,12.3,3.8,21.6,11.4,27.5c3.9,3.2,8.4,5.9,13.4,7.9c5.1,2,12.7,4.3,22.6,6.8
			c10.4,2.6,17.6,5.4,21.9,8.6c4.6,3.4,6.9,8.2,6.9,14.2c0,6-2.5,11-7.3,14.6c-4.7,3.5-11,5.3-18.9,5.3c-14.7,0-29.2-5.9-42.8-17.7
			l-12.1,14.9c15.8,14,34.1,21,54.3,21C930.3,271.4,941.8,267.7,950.4,260.3z"/>
	</g>
</g>
</svg>
