<?xml version="1.0" encoding="utf-8"?>
<!-- Generator: Adobe Illustrator 18.0.0, SVG Export Plug-In . SVG Version: 6.00 Build 0)  -->
<!DOCTYPE svg PUBLIC "-//W3C//DTD SVG 1.1//EN" "http://www.w3.org/Graphics/SVG/1.1/DTD/svg11.dtd">
<svg version="1.1" id="Layer_1" xmlns="http://www.w3.org/2000/svg" xmlns:xlink="http://www.w3.org/1999/xlink" x="0px" y="0px"
	 viewBox="0 0 792 612" enable-background="new 0 0 792 612" xml:space="preserve">
<circle stroke="#FFFFFF" stroke-miterlimit="10" cx="399.1" cy="301" r="273.4"/>
<g>
	<path fill="#FFFFFF" d="M398,0c42.8,0,81.6,8.2,118.3,24.5c38.8,16.3,71.4,36.7,97.9,65.3c28.6,26.5,49,59.2,65.3,95.9
		S704,263.2,704,304s-8.2,81.6-24.5,118.3c-16.3,36.7-38.8,69.4-65.3,97.9c-28.6,28.6-59.2,49-97.9,65.3
		C479.6,601.8,438.8,610,398,610s-81.6-8.2-118.3-24.5c-36.7-16.3-69.4-38.8-95.9-65.3c-26.5-28.6-49-59.2-65.3-97.9
		c-16.3-34.7-24.5-75.5-24.5-118.3s8.2-81.6,24.5-118.3s38.8-69.4,65.3-95.9c26.5-28.6,59.2-49,95.9-65.3S357.2,0,398,0z M551,238.7
		c14.3-10.2,26.5-24.5,36.7-38.8c-6.1,2-14.3,6.1-20.4,8.2c-6.1,2-14.3,4.1-22.4,4.1c8.2-4.1,14.3-10.2,20.4-18.4
		c6.1-6.1,10.2-14.3,12.2-22.4c-8.2,4.1-14.3,8.2-22.4,10.2c-8.2,4.1-16.3,6.1-24.5,6.1c-6.1-6.1-14.3-12.2-24.5-16.3
		c-10.2-4.1-20.4-6.1-30.6-6.1c-10.2,0-20.4,2-28.6,6.1c-8.2,4.1-16.3,10.2-22.4,16.3c-6.1,6.1-12.2,14.3-16.3,24.5
		c-4.1,8.2-6.1,18.4-6.1,28.6c0,2,0,6.1,0,8.2c0,2,0,6.1,2,8.2c-30.6-2-59.2-8.2-85.7-22.4c-26.5-14.3-49-32.6-67.3-55.1
		C245,189.7,241,204,241,216.2s2,24.5,8.2,34.7c6.1,10.2,14.3,20.4,24.5,26.5c-12.2,0-24.5-4.1-32.6-10.2l0,0
		c0,18.4,6.1,34.7,16.3,46.9c12.2,14.3,26.5,22.4,42.8,24.5c-4.1,0-6.1,2-10.2,2s-6.1,0-10.2,0c-2,0-4.1,0-6.1,0s-4.1,0-6.1-2
		c4.1,14.3,14.3,26.5,26.5,36.7c12.2,10.2,26.5,14.3,42.8,14.3c-12.2,10.2-26.5,18.4-42.8,24.5c-16.3,10.2-32.6,14.3-51,14.3
		c-4.1,0-6.1,0-10.2,0c-2,0-6.1,0-8.2-2c16.3,10.2,34.7,18.4,53,24.5c18.4,6.1,38.8,8.2,61.2,8.2c34.7,0,63.2-6.1,89.8-18.4
		c26.5-12.2,49-28.6,65.3-49c18.4-20.4,30.6-42.8,40.8-67.3c10.2-24.5,14.3-49,14.3-73.4v-12.2H551z"/>
</g>
</svg>
